<svg width="50" height="40" viewBox="0 0 50 40" fill="none" xmlns="http://www.w3.org/2000/svg">
<path d="M45 1.25H17.5C15.4297 1.25 13.75 2.92969 13.75 5V7.57812C13.3438 7.52344 12.9219 7.5 12.5 7.5V5C12.5 2.24219 14.7422 0 17.5 0H45C47.7578 0 50 2.24219 50 5V27.5C50 30.2578 47.7578 32.5 45 32.5H42.5H41.875H30.625H30H26.3125C26.1172 32.0703 25.8906 31.6562 25.6484 31.25H30V28.125C30 26.3984 31.3984 25 33.125 25H39.375C41.1016 25 42.5 26.3984 42.5 28.125V31.25H45C47.0703 31.25 48.75 29.5703 48.75 27.5V5C48.75 2.92969 47.0703 1.25 45 1.25ZM41.25 31.25V28.125C41.25 27.0859 40.4141 26.25 39.375 26.25H33.125C32.0859 26.25 31.25 27.0859 31.25 28.125V31.25H41.25ZM18.75 17.5C18.75 15.8424 18.0915 14.2527 16.9194 13.0806C15.7473 11.9085 14.1576 11.25 12.5 11.25C10.8424 11.25 9.25268 11.9085 8.08058 13.0806C6.90848 14.2527 6.25 15.8424 6.25 17.5C6.25 19.1576 6.90848 20.7473 8.08058 21.9194C9.25268 23.0915 10.8424 23.75 12.5 23.75C14.1576 23.75 15.7473 23.0915 16.9194 21.9194C18.0915 20.7473 18.75 19.1576 18.75 17.5ZM5 17.5C5 15.5109 5.79018 13.6032 7.1967 12.1967C8.60322 10.7902 10.5109 10 12.5 10C14.4891 10 16.3968 10.7902 17.8033 12.1967C19.2098 13.6032 20 15.5109 20 17.5C20 19.4891 19.2098 21.3968 17.8033 22.8033C16.3968 24.2098 14.4891 25 12.5 25C10.5109 25 8.60322 24.2098 7.1967 22.8033C5.79018 21.3968 5 19.4891 5 17.5ZM1.25 37.9141C1.25 38.375 1.625 38.75 2.08594 38.75H22.9141C23.375 38.75 23.75 38.375 23.75 37.9141C23.75 32.8516 19.6484 28.75 14.5859 28.75H10.4141C5.35156 28.75 1.25 32.8516 1.25 37.9141ZM0 37.9141C0 32.1641 4.66406 27.5 10.4141 27.5H14.5781C20.3359 27.5 25 32.1641 25 37.9141C25 39.0625 24.0703 40 22.9141 40H2.08594C0.929688 40 0 39.0703 0 37.9141Z" fill="black"/>
</svg>
