<svg width="50" height="58" viewBox="0 0 50 58" fill="none" xmlns="http://www.w3.org/2000/svg">
<path d="M14.2857 0.892857C14.2857 0.401786 13.8839 0 13.3929 0C12.9018 0 12.5 0.401786 12.5 0.892857V7.14286H7.14286C3.20313 7.14286 0 10.346 0 14.2857V19.6429V21.4286V50C0 53.9397 3.20313 57.1429 7.14286 57.1429H42.8571C46.7969 57.1429 50 53.9397 50 50V21.4286V19.6429V14.2857C50 10.346 46.7969 7.14286 42.8571 7.14286H37.5V0.892857C37.5 0.401786 37.0982 0 36.6071 0C36.1161 0 35.7143 0.401786 35.7143 0.892857V7.14286H14.2857V0.892857ZM1.78571 21.4286H48.2143V50C48.2143 52.9576 45.8147 55.3571 42.8571 55.3571H7.14286C4.18527 55.3571 1.78571 52.9576 1.78571 50V21.4286ZM12.5 8.92857V13.3929C12.5 13.8839 12.9018 14.2857 13.3929 14.2857C13.8839 14.2857 14.2857 13.8839 14.2857 13.3929V8.92857H35.7143V13.3929C35.7143 13.8839 36.1161 14.2857 36.6071 14.2857C37.0982 14.2857 37.5 13.8839 37.5 13.3929V8.92857H42.8571C45.8147 8.92857 48.2143 11.3281 48.2143 14.2857V19.6429H1.78571V14.2857C1.78571 11.3281 4.18527 8.92857 7.14286 8.92857H12.5ZM26.596 28.0134C25.9375 26.6853 24.0513 26.6853 23.3929 28.0134L20.7254 33.4152L14.7656 34.2857C13.3036 34.4978 12.7121 36.2946 13.7723 37.3326L18.0804 41.5402L17.0759 47.4665C16.8304 48.9286 18.3594 50.0335 19.6652 49.3527L25 46.5402L30.3348 49.3415C31.6406 50.0335 33.1808 48.9174 32.9241 47.4554L31.9085 41.5179L36.2165 37.3103C37.2768 36.2723 36.6964 34.4754 35.2232 34.2634L29.2634 33.3929L26.596 28.0134ZM25 28.8058L27.8683 34.6317L28.0804 35.0558L28.5491 35.1228L34.9777 36.0603L30.3237 40.5915L29.9888 40.9152L30.067 41.3728L31.1607 47.7679L25.4129 44.7433L25 44.5201L24.5871 44.7433L18.8393 47.7679L19.933 41.3728L20.0112 40.9152L19.6763 40.5915L15.0335 36.0491L21.4621 35.1116L21.9308 35.0446L22.1429 34.6205L25 28.8058Z" fill="black"/>
</svg>
