<svg width="50" height="45" viewBox="0 0 50 45" fill="none" xmlns="http://www.w3.org/2000/svg">
<path d="M0.694444 0C0.3125 0 0 0.3125 0 0.694444C0 1.07639 0.3125 1.38889 0.694444 1.38889H49.3056C49.6875 1.38889 50 1.07639 50 0.694444C50 0.3125 49.6875 0 49.3056 0H0.694444ZM2.77778 4.16667V25C2.77778 28.0642 5.2691 30.5556 8.33333 30.5556H24.3056V35.1302L16.1719 43.2639C15.9028 43.533 15.9028 43.9757 16.1719 44.2448C16.441 44.5139 16.8837 44.5139 17.1528 44.2448L25 36.3976L32.8385 44.2361C33.1076 44.5052 33.5503 44.5052 33.8194 44.2361C34.0885 43.967 34.0885 43.5243 33.8194 43.2552L25.6944 35.1302V30.5556H41.6667C44.7309 30.5556 47.2222 28.0642 47.2222 25V4.16667H45.8333V25C45.8333 27.3003 43.967 29.1667 41.6667 29.1667H25H8.33333C6.03299 29.1667 4.16667 27.3003 4.16667 25V4.16667H2.77778Z" fill="black"/>
</svg>
