<svg width="50" height="40" viewBox="0 0 50 40" fill="none" xmlns="http://www.w3.org/2000/svg">
<path d="M12.5078 3.58594L8.75 1.4375V8.75H26.25V1.4375L22.4922 3.58594C22.0781 3.82031 21.5703 3.80469 21.1797 3.53906L17.9531 1.39062C17.8203 1.30469 17.6641 1.25 17.5 1.25C17.3359 1.25 17.1797 1.29687 17.0469 1.39062L13.8203 3.53906C13.4297 3.80469 12.9141 3.82031 12.5078 3.58594ZM8.75 11.25C8.75 16.0859 12.6641 20 17.5 20C22.3359 20 26.25 16.0859 26.25 11.25V10H8.75V11.25ZM18.6484 0.34375L21.875 2.5L26.0234 0.132812C26.1719 0.046875 26.3438 0 26.5156 0C27.0625 0 27.5 0.445313 27.5 0.984375V11.25C27.5 16.7734 23.0234 21.25 17.5 21.25C11.9766 21.25 7.5 16.7734 7.5 11.25V0.984375C7.5 0.445313 7.94531 0 8.48438 0C8.65625 0 8.82812 0.046875 8.97656 0.132812L13.125 2.5L16.3516 0.34375C16.6953 0.117188 17.0938 0 17.5 0C17.9062 0 18.3047 0.117188 18.6484 0.34375ZM1.25 36.875V37.5C1.25 38.1875 1.8125 38.75 2.5 38.75H32.5C33.1875 38.75 33.75 38.1875 33.75 37.5V36.875C33.75 30.3203 28.4297 25 21.875 25H13.125C6.57031 25 1.25 30.3203 1.25 36.875ZM0 36.875C0 29.625 5.875 23.75 13.125 23.75H21.875C29.125 23.75 35 29.625 35 36.875V37.5C35 38.8828 33.8828 40 32.5 40H2.5C1.11719 40 0 38.8828 0 37.5V36.875ZM33.75 20C31.5859 20 29.6094 19.2109 28.0781 17.9141C28.1953 17.7266 28.3125 17.5391 28.4219 17.3438C28.5234 17.1641 28.6172 16.9844 28.7109 16.8047C30.0469 18.0156 31.8125 18.7578 33.7578 18.7578C37.8984 18.7578 41.2578 15.3984 41.2578 11.2578C41.2578 7.11719 37.8984 3.75781 33.7578 3.75781C32.3906 3.75781 31.1094 4.125 30.0078 4.75781V3.34375C31.1328 2.80469 32.4062 2.5 33.75 2.5C38.5859 2.5 42.5 6.41406 42.5 11.25C42.5 16.0859 38.5859 20 33.75 20ZM47.6016 40H36.8281C37.0547 39.6094 37.2266 39.1953 37.3359 38.75H47.6016C48.2344 38.75 48.75 38.2344 48.75 37.6016C48.75 31.3281 43.6719 26.25 37.3984 26.25H33.3281C32.9219 25.8125 32.4922 25.3984 32.0391 25.0156C32.2266 25.0078 32.4062 25 32.5938 25H37.3906C44.3594 25 50 30.6406 50 37.6016C50 38.9297 48.9219 40 47.6016 40Z" fill="black"/>
</svg>
