<svg width="50" height="58" viewBox="0 0 50 58" fill="none" xmlns="http://www.w3.org/2000/svg">
<path d="M37.5 14.2857C37.5 10.9705 36.183 7.79108 33.8388 5.44688C31.4946 3.10267 28.3152 1.78571 25 1.78571C21.6848 1.78571 18.5054 3.10267 16.1612 5.44688C13.817 7.79108 12.5 10.9705 12.5 14.2857C12.5 17.6009 13.817 20.7803 16.1612 23.1245C18.5054 25.4688 21.6848 26.7857 25 26.7857C28.3152 26.7857 31.4946 25.4688 33.8388 23.1245C36.183 20.7803 37.5 17.6009 37.5 14.2857ZM10.7143 14.2857C10.7143 10.4969 12.2194 6.86328 14.8985 4.18419C17.5776 1.5051 21.2112 0 25 0C28.7888 0 32.4224 1.5051 35.1015 4.18419C37.7806 6.86328 39.2857 10.4969 39.2857 14.2857C39.2857 18.0745 37.7806 21.7081 35.1015 24.3872C32.4224 27.0663 28.7888 28.5714 25 28.5714C21.2112 28.5714 17.5776 27.0663 14.8985 24.3872C12.2194 21.7081 10.7143 18.0745 10.7143 14.2857ZM1.78571 53.8281C1.78571 54.6763 2.46652 55.3571 3.31473 55.3571H46.6853C47.5335 55.3571 48.2143 54.6763 48.2143 53.8281C48.2143 43.8281 40.1004 35.7143 30.1004 35.7143H19.8996C9.89955 35.7143 1.78571 43.8281 1.78571 53.8281ZM0 53.8281C0 42.8348 8.90625 33.9286 19.8996 33.9286H30.1004C41.0938 33.9286 50 42.8348 50 53.8281C50 55.6585 48.5156 57.1429 46.6853 57.1429H3.31473C1.48438 57.1429 0 55.6585 0 53.8281Z" fill="black"/>
</svg>
