<svg width="50" height="39" viewBox="0 0 50 39" fill="none" xmlns="http://www.w3.org/2000/svg">
<path d="M5.55556 1.38889C3.25521 1.38889 1.38889 3.25521 1.38889 5.55556V33.3333C1.38889 35.6337 3.25521 37.5 5.55556 37.5H44.4444C46.7448 37.5 48.6111 35.6337 48.6111 33.3333V5.55556C48.6111 3.25521 46.7448 1.38889 44.4444 1.38889H5.55556ZM0 5.55556C0 2.49132 2.49132 0 5.55556 0H44.4444C47.5087 0 50 2.49132 50 5.55556V33.3333C50 36.3976 47.5087 38.8889 44.4444 38.8889H5.55556C2.49132 38.8889 0 36.3976 0 33.3333V5.55556ZM17.3003 11.5191L24.2448 26.7969C24.401 27.1441 24.2448 27.5608 23.8976 27.717C23.5503 27.8733 23.1337 27.717 22.9774 27.3698L21.2674 23.6111H12.066L10.3559 27.3698C10.1997 27.717 9.78299 27.8733 9.43576 27.717C9.08854 27.5608 8.93229 27.1441 9.08854 26.7969L16.033 11.5191C16.1458 11.2674 16.3889 11.1111 16.6667 11.1111C16.9444 11.1111 17.1875 11.2674 17.3003 11.5191ZM16.6667 13.4809L12.691 22.2222H20.6337L16.6667 13.4809ZM32.6389 16.6667C31.3496 16.6667 30.1132 17.1788 29.2016 18.0905C28.2899 19.0021 27.7778 20.2385 27.7778 21.5278C27.7778 22.817 28.2899 24.0535 29.2016 24.9651C30.1132 25.8767 31.3496 26.3889 32.6389 26.3889C33.9281 26.3889 35.1646 25.8767 36.0762 24.9651C36.9879 24.0535 37.5 22.817 37.5 21.5278C37.5 20.2385 36.9879 19.0021 36.0762 18.0905C35.1646 17.1788 33.9281 16.6667 32.6389 16.6667ZM37.5 17.5955V11.8056C37.5 11.4236 37.8125 11.1111 38.1944 11.1111C38.5764 11.1111 38.8889 11.4236 38.8889 11.8056V21.5278V27.0833C38.8889 27.4653 38.5764 27.7778 38.1944 27.7778C37.8125 27.7778 37.5 27.4653 37.5 27.0833V25.4601C36.3542 26.875 34.6007 27.7778 32.6389 27.7778C29.184 27.7778 26.3889 24.9826 26.3889 21.5278C26.3889 18.0729 29.184 15.2778 32.6389 15.2778C34.6007 15.2778 36.3542 16.1806 37.5 17.5955Z" fill="black"/>
</svg>
