<svg width="50" height="44" viewBox="0 0 50 44" fill="none" xmlns="http://www.w3.org/2000/svg">
<path d="M24.9959 3.50203L23.4597 1.93979C20.9081 -0.646596 16.7768 -0.646596 14.2251 1.93979C11.6734 4.52617 11.6734 8.72688 14.2251 11.3133L23.0431 20.2701C23.5812 20.8169 24.2842 21.086 24.9959 21.086C25.7076 21.086 26.4106 20.8169 26.9487 20.2701L35.7668 11.3133C38.3184 8.72688 38.3184 4.52617 35.7668 1.93979C33.2151 -0.646596 29.0838 -0.646596 26.5321 1.93979L24.9959 3.50203ZM25.4906 4.97749L27.5216 2.91185C29.5264 0.872254 32.7724 0.872254 34.7773 2.91185C36.7909 4.96013 36.7909 8.28424 34.7773 10.3325L25.9593 19.2981C25.6903 19.5671 25.3431 19.706 24.9959 19.706C24.6488 19.706 24.3016 19.5758 24.0325 19.2981L15.2145 10.3412C13.201 8.29292 13.201 4.96881 15.2145 2.92053C17.2194 0.880933 20.4654 0.880933 22.4703 2.92053L24.5012 4.98617C24.7703 5.2639 25.2216 5.2639 25.4906 4.98617V4.97749ZM45.2878 29.0014C46.2164 28.3157 47.5183 28.5153 48.204 29.444C48.8896 30.3727 48.69 31.6745 47.7613 32.3602L36.7649 40.4492C34.977 41.7684 32.8158 42.4801 30.594 42.4801H0.694332C0.312449 42.4801 0 42.7925 0 43.1744C0 43.5563 0.312449 43.8687 0.694332 43.8687H30.594C33.1109 43.8687 35.5671 43.0616 37.5981 41.5688L48.5858 33.4711C50.1307 32.3342 50.4605 30.1644 49.3236 28.6195C48.1866 27.0746 46.0168 26.7448 44.4719 27.8817L34.2566 35.3979C34.1351 35.4847 33.9962 35.5368 33.8487 35.5368H23.2601C22.6873 35.5368 22.2186 35.0681 22.2186 34.4953C22.2186 33.9224 22.6873 33.4538 23.2601 33.4538H30.2034C31.9306 33.4538 33.3279 32.0564 33.3279 30.3293C33.3279 28.6021 31.9306 27.2048 30.2034 27.2048H16.8115C14.2859 27.2048 11.8384 28.064 9.86819 29.6349L6.16219 32.6032C6.04068 32.6987 5.88446 32.7594 5.72824 32.7594H0.694332C0.312449 32.7594 0 33.0719 0 33.4538C0 33.8356 0.312449 34.1481 0.694332 34.1481H5.72824C6.19691 34.1481 6.6569 33.9832 7.03011 33.6881L10.7361 30.7198C12.4633 29.3398 14.5983 28.5934 16.8115 28.5934H30.2034C31.1581 28.5934 31.9393 29.3746 31.9393 30.3293C31.9393 31.284 31.1581 32.0651 30.2034 32.0651H23.2601C21.9148 32.0651 20.8299 33.15 20.8299 34.4953C20.8299 35.8405 21.9148 36.9254 23.2601 36.9254H33.84C34.2826 36.9254 34.7166 36.7865 35.0724 36.5175L45.2791 29.0014H45.2878Z" fill="black"/>
</svg>
