<svg width="50" height="50" viewBox="0 0 50 50" fill="none" xmlns="http://www.w3.org/2000/svg">
<path d="M33.078 0C33.5011 0 33.8472 0.346131 33.8472 0.76918V6.92262H40.0007C40.4237 6.92262 40.7698 7.26875 40.7698 7.6918C40.7698 8.11485 40.4237 8.46098 40.0007 8.46098H33.8472V14.6144C33.8472 15.0375 33.5011 15.3836 33.078 15.3836C32.655 15.3836 32.3089 15.0375 32.3089 14.6144V8.46098H26.1554C25.7324 8.46098 25.3862 8.11485 25.3862 7.6918C25.3862 7.26875 25.7324 6.92262 26.1554 6.92262H32.3089V0.76918C32.3089 0.346131 32.655 0 33.078 0ZM13.3101 24.8541C13.089 25.306 12.6563 25.6233 12.1563 25.7002L2.20506 27.1424C1.57049 27.2386 1.3205 28.0078 1.78201 28.4501L8.98346 35.4881C9.34882 35.8438 9.51227 36.3534 9.42574 36.8437L7.72393 46.7854C7.61817 47.4103 8.27197 47.8911 8.83924 47.593L17.7425 42.901C18.1944 42.6607 18.7232 42.6607 19.1751 42.901L28.0687 47.593C28.636 47.8911 29.2898 47.4103 29.1841 46.7854L27.4919 36.8533C27.4053 36.3534 27.5688 35.8438 27.9341 35.4977L35.1356 28.4597C35.5875 28.0174 35.3375 27.2386 34.7125 27.1521L24.7517 25.6906C24.2517 25.6137 23.819 25.306 23.5979 24.8445L19.1463 15.8067C18.8674 15.2298 18.0502 15.2298 17.7617 15.8067L13.3101 24.8445V24.8541ZM0.695546 29.5557C-0.669749 28.2193 0.0898163 25.8925 1.97431 25.6233L11.9256 24.1715L16.3772 15.1336C17.2233 13.4126 19.6751 13.4126 20.5212 15.1336L24.9728 24.1715L34.9241 25.6233C36.8182 25.9021 37.5681 28.2193 36.2028 29.5557L29.0014 36.5937L30.7032 46.5258C31.0301 48.4103 29.0495 49.8525 27.3573 48.9583L18.454 44.2663L9.55073 48.9583C7.85854 49.8525 5.8779 48.4103 6.2048 46.5258L7.90661 36.5937L0.695546 29.5557ZM44.6157 15.3836V19.9987H49.2308C49.6539 19.9987 50 20.3448 50 20.7679C50 21.1909 49.6539 21.537 49.2308 21.537H44.6157V26.1521C44.6157 26.5752 44.2696 26.9213 43.8466 26.9213C43.4235 26.9213 43.0774 26.5752 43.0774 26.1521V21.537H38.4623C38.0392 21.537 37.6931 21.1909 37.6931 20.7679C37.6931 20.3448 38.0392 19.9987 38.4623 19.9987H43.0774V15.3836C43.0774 14.9606 43.4235 14.6144 43.8466 14.6144C44.2696 14.6144 44.6157 14.9606 44.6157 15.3836Z" fill="black"/>
</svg>
