<svg width="50" height="39" viewBox="0 0 50 39" fill="none" xmlns="http://www.w3.org/2000/svg">
<path d="M5.55556 6.25C5.55556 3.56771 7.73437 1.38889 10.4167 1.38889H27.0833C27.4653 1.38889 27.7778 1.07639 27.7778 0.694444C27.7778 0.3125 27.4653 0 27.0833 0H10.4167C6.96181 0 4.16667 2.79514 4.16667 6.25V11.2847C1.77083 11.901 0 14.0799 0 16.6667V33.3333C0 36.3976 2.49132 38.8889 5.55556 38.8889H27.7778C30.842 38.8889 33.3333 36.3976 33.3333 33.3333V31.8576V29.4531V20.5469V18.1424V16.6667C33.3333 13.6024 30.842 11.1111 27.7778 11.1111H5.55556V6.25ZM5.55556 12.5H27.7778C30.0781 12.5 31.9444 14.3663 31.9444 16.6667V20.5469V29.4531V33.3333C31.9444 35.6337 30.0781 37.5 27.7778 37.5H5.55556C3.25521 37.5 1.38889 35.6337 1.38889 33.3333V16.6667C1.38889 14.3663 3.25521 12.5 5.55556 12.5ZM45.7292 35.9288L36.1111 31.6059V33.125L45.1649 37.1962C45.6076 37.3958 46.0851 37.5 46.5712 37.5C48.4635 37.5 50 35.9635 50 34.0712V15.9288C50 14.0365 48.4635 12.5 46.5712 12.5C46.0851 12.5 45.6076 12.6042 45.1649 12.8038L36.1111 16.875V18.3941L45.7292 14.0625C45.9896 13.941 46.276 13.8802 46.5712 13.8802C47.6996 13.8802 48.6111 14.7917 48.6111 15.9201V34.0625C48.6111 35.191 47.6996 36.1024 46.5712 36.1024C46.2847 36.1024 45.9983 36.0417 45.7292 35.9201V35.9288ZM5.55556 18.75C5.55556 19.1319 5.86806 19.4444 6.25 19.4444H27.0833C27.4653 19.4444 27.7778 19.1319 27.7778 18.75C27.7778 18.3681 27.4653 18.0556 27.0833 18.0556H6.25C5.86806 18.0556 5.55556 18.3681 5.55556 18.75Z" fill="black"/>
</svg>
