<svg width="50" height="26" viewBox="0 0 50 26" fill="none" xmlns="http://www.w3.org/2000/svg">
<path d="M11.5385 0.641026C11.5385 0.288462 11.25 0 10.8974 0C10.5449 0 10.2564 0.288462 10.2564 0.641026V2.5641H0.641026C0.288462 2.5641 0 2.85256 0 3.20513C0 3.55769 0.288462 3.84615 0.641026 3.84615H10.2564V16.0256C10.2564 16.3782 10.5449 16.6667 10.8974 16.6667H15.1923L14.1106 17.9647C12.8606 19.4631 12.1795 21.3462 12.1795 23.3013V25C12.1795 25.3526 12.4679 25.641 12.8205 25.641C13.1731 25.641 13.4615 25.3526 13.4615 25V23.3013C13.4615 21.6506 14.0385 20.0561 15.0962 18.7901L16.266 17.3798L20.8013 20.4006C20.9055 20.4728 21.0337 20.5048 21.1538 20.5048H28.8462C28.9744 20.5048 29.0946 20.4647 29.1987 20.4006L33.734 17.3798L34.9038 18.7821C35.9615 20.0481 36.5385 21.6506 36.5385 23.2933V25C36.5385 25.3526 36.8269 25.641 37.1795 25.641C37.5321 25.641 37.8205 25.3526 37.8205 25V23.3013C37.8205 21.3542 37.1394 19.4631 35.8894 17.9647L34.8077 16.6667H39.1026C39.4551 16.6667 39.7436 16.3782 39.7436 16.0256V3.84615H49.359C49.7115 3.84615 50 3.55769 50 3.20513C50 2.85256 49.7115 2.5641 49.359 2.5641H39.7436V0.641026C39.7436 0.288462 39.4551 0 39.1026 0C38.75 0 38.4615 0.288462 38.4615 0.641026V2.5641H28.8462C28.4936 2.5641 28.2051 2.85256 28.2051 3.20513C28.2051 3.55769 28.4936 3.84615 28.8462 3.84615H38.4615V11.8429L32.0513 9.03846C30.024 8.14904 27.8365 7.69231 25.625 7.69231H24.375C22.1635 7.69231 19.976 8.14904 17.9487 9.03846L11.5385 11.8429V3.84615H21.1538C21.5064 3.84615 21.7949 3.55769 21.7949 3.20513C21.7949 2.85256 21.5064 2.5641 21.1538 2.5641H11.5385V0.641026ZM11.5385 13.2372L18.4615 10.2083C20.3285 9.39103 22.3397 8.97436 24.375 8.97436H25.633C27.6683 8.97436 29.6795 9.39904 31.5465 10.2083L38.4615 13.2372V15.3846H34.6154C34.4872 15.3846 34.367 15.4247 34.2628 15.4888L28.6538 19.2308H21.3462L15.7372 15.4888C15.633 15.4167 15.5048 15.3846 15.3846 15.3846H11.5385V13.2372Z" fill="black"/>
</svg>
