<svg width="132" height="126" xmlns="http://www.w3.org/2000/svg" xmlns:xlink="http://www.w3.org/1999/xlink" xml:space="preserve" overflow="hidden"><defs><clipPath id="clip0"><rect x="2128" y="1175" width="132" height="126"/></clipPath></defs><g clip-path="url(#clip0)" transform="translate(-2128 -1175)"><path d="M2184.39 1181.47C2187.87 1172.84 2200.13 1172.84 2203.61 1181.47L2213.89 1206.96C2215.37 1210.63 2218.83 1213.14 2222.8 1213.41L2250.33 1215.26C2259.64 1215.89 2263.43 1227.5 2256.27 1233.46L2235.09 1251.07C2232.04 1253.61 2230.72 1257.66 2231.69 1261.5L2238.42 1288.14C2240.7 1297.15 2230.78 1304.33 2222.88 1299.39L2199.51 1284.78C2196.14 1282.68 2191.86 1282.68 2188.5 1284.78L2165.12 1299.39C2157.22 1304.33 2147.3 1297.15 2149.58 1288.14L2156.31 1261.5C2157.28 1257.66 2155.96 1253.61 2152.91 1251.07L2131.73 1233.46C2124.57 1227.5 2128.36 1215.89 2137.67 1215.26L2165.2 1213.41C2169.17 1213.14 2172.63 1210.63 2174.11 1206.96L2184.39 1181.47Z" fill="#F2F2F2" fill-rule="evenodd"/><path d="M2194 1175 2194 1283.2 2188.5 1284.78 2165.12 1299.39C2157.22 1304.33 2147.3 1297.15 2149.58 1288.14L2156.31 1261.5C2157.28 1257.66 2155.96 1253.61 2152.91 1251.07L2131.73 1233.46C2124.57 1227.5 2128.36 1215.89 2137.67 1215.26L2165.2 1213.41C2169.17 1213.14 2172.63 1210.63 2174.11 1206.96L2184.39 1181.47C2185.26 1179.31 2186.68 1177.69 2188.37 1176.62Z" fill="#FDB812" fill-rule="evenodd"/></g></svg>