<svg width="50" height="51" viewBox="0 0 50 51" fill="none" xmlns="http://www.w3.org/2000/svg">
<path d="M24.9875 4.50839C31.6782 4.50839 32.4695 4.53237 35.1074 4.65228C37.5535 4.77218 38.8724 5.17986 39.7597 5.51559C40.9348 5.97122 41.7501 6.52278 42.6374 7.38609C43.5247 8.27338 44.0523 9.08873 44.5079 10.2638C44.8436 11.1511 45.2513 12.47 45.3712 14.9161C45.4911 17.554 45.5151 18.3453 45.5151 25.036C45.5151 31.7266 45.4911 32.518 45.3712 35.1559C45.2513 37.6019 44.8436 38.9209 44.5079 39.8082C44.0523 40.9832 43.5007 41.7986 42.6374 42.6858C41.7741 43.5492 40.9348 44.1007 39.7597 44.5564C38.8724 44.8921 37.5535 45.2998 35.1074 45.4197C32.4695 45.5396 31.6782 45.5635 24.9875 45.5635C18.2969 45.5635 17.5055 45.5396 14.8676 45.4197C12.4216 45.2998 11.1026 44.8921 10.2153 44.5564C9.04028 44.1007 8.22493 43.5492 7.33764 42.6858C6.47433 41.7986 5.92277 40.9832 5.46714 39.8082C5.13141 38.9209 4.72373 37.6019 4.60383 35.1559C4.48392 32.518 4.45994 31.7266 4.45994 25.036C4.45994 18.3453 4.48392 17.554 4.60383 14.9161C4.72373 12.47 5.13141 11.1511 5.46714 10.2638C5.92277 9.08873 6.47433 8.27338 7.33764 7.38609C8.22493 6.4988 9.04028 5.97122 10.2153 5.51559C11.1026 5.17986 12.4216 4.77218 14.8676 4.65228C17.5055 4.53237 18.2969 4.50839 24.9875 4.50839ZM24.9875 0C18.201 0 17.3376 0.0239808 14.6758 0.143885C12.0139 0.263789 10.1914 0.695444 8.60862 1.31894C6.95395 1.96643 5.56306 2.80576 4.17217 4.19664C2.78129 5.58753 1.91798 6.97842 1.29448 8.63309C0.670975 10.2158 0.263301 12.0384 0.143397 14.7002C0.0234925 17.3621 -0.000488281 18.2254 -0.000488281 25.012C-0.000488281 31.7986 0.0234925 32.6619 0.143397 35.3237C0.263301 37.9856 0.694955 39.8082 1.29448 41.3909C1.94196 43.0456 2.78129 44.4364 4.17217 45.8273C5.56306 47.2182 6.95395 48.0815 8.60862 48.705C10.1914 49.3285 12.0139 49.7362 14.6758 49.8801C17.3376 50 18.201 50.024 24.9875 50.024C31.7741 50.024 32.6374 50 35.2993 49.8801C37.9611 49.7602 39.7837 49.3285 41.3664 48.705C43.0211 48.0575 44.412 47.2182 45.8029 45.8273C47.1938 44.4364 48.0571 43.0456 48.6806 41.3909C49.3041 39.8082 49.7117 37.9856 49.8556 35.3237C49.9755 32.6619 49.9995 31.7986 49.9995 25.012C49.9995 18.2254 49.9755 17.3621 49.8556 14.7002C49.7357 12.0384 49.3041 10.2158 48.6806 8.63309C48.0331 6.97842 47.1938 5.58753 45.8029 4.19664C44.412 2.80576 43.0211 1.94245 41.3664 1.31894C39.7837 0.695444 37.9611 0.28777 35.2993 0.143885C32.6374 0.0239808 31.7741 0 24.9875 0Z" fill="black"/>
<path d="M24.9846 12.1826C17.8863 12.1826 12.1309 17.938 12.1309 25.0363C12.1309 32.1347 17.8863 37.89 24.9846 37.89C32.0829 37.89 37.8383 32.1347 37.8383 25.0363C37.8383 17.938 32.0829 12.1826 24.9846 12.1826ZM24.9846 33.3817C20.3803 33.3817 16.6393 29.6406 16.6393 25.0363C16.6393 20.432 20.3803 16.691 24.9846 16.691C29.5889 16.691 33.3299 20.432 33.3299 25.0363C33.3299 29.6406 29.5889 33.3817 24.9846 33.3817Z" fill="black"/>
<path d="M41.3736 11.6514C41.3736 13.3069 40.03 14.6504 38.3745 14.6504C36.7191 14.6504 35.3755 13.3069 35.3755 11.6514C35.3755 9.99591 36.7191 8.65234 38.3745 8.65234C40.03 8.65234 41.3736 9.99591 41.3736 11.6514Z" fill="black"/>
</svg>
