<svg width="50" height="48" viewBox="0 0 50 48" fill="none" xmlns="http://www.w3.org/2000/svg">
<path d="M11.3283 15.709H0.998535V47.1287H11.3283V15.709Z" fill="black"/>
<path d="M6.10648 11.6052C9.48732 11.6052 12.213 9.01256 12.213 5.8026C12.213 2.59265 9.48732 0 6.10648 0C2.72564 0 0 2.59265 0 5.8026C0 9.01256 2.72564 11.6052 6.10648 11.6052Z" fill="black"/>
<path d="M27.819 30.6536C27.819 26.2321 29.9689 23.6138 34.1113 23.6138C37.9129 23.6138 39.7219 26.1333 39.7219 30.6536V47.1539H49.9992V27.2448C49.9992 18.8218 44.9392 14.7461 37.8604 14.7461C30.7816 14.7461 27.819 19.9333 27.819 19.9333V15.7094H17.9087V47.1292H27.819V30.6289V30.6536Z" fill="black"/>
</svg>
