<svg width="50" height="44" viewBox="0 0 50 44" fill="none" xmlns="http://www.w3.org/2000/svg">
<path d="M1.5625 3.90625C1.5625 2.60742 2.60742 1.5625 3.90625 1.5625H10.1562C11.4551 1.5625 12.5 2.60742 12.5 3.90625V17.5391C12.5 17.8125 12.6465 18.0664 12.8711 18.2031C13.0957 18.3398 13.3984 18.3594 13.6328 18.2324L28.9648 10.2832C30.0098 9.74609 31.25 10.498 31.25 11.6699V17.4414C31.25 17.7148 31.3965 17.9785 31.6406 18.1152C31.8848 18.252 32.1777 18.2617 32.4219 18.125L46.1133 10.4492C47.1582 9.86328 48.4375 10.6152 48.4375 11.8164V26.5625V28.125V38.2812C48.4375 40.4395 46.6895 42.1875 44.5312 42.1875H5.46875C3.31055 42.1875 1.5625 40.4395 1.5625 38.2812V31.25V26.5625V3.90625ZM3.90625 0C1.74805 0 0 1.74805 0 3.90625V26.5625V31.25V38.2812C0 41.2988 2.45117 43.75 5.46875 43.75H44.5312C47.5488 43.75 50 41.2988 50 38.2812V28.125V26.5625V11.8066C50 9.42383 47.4316 7.91016 45.3516 9.08203L32.8125 16.1035V11.6699C32.8125 9.32617 30.332 7.8125 28.252 8.89648L14.0625 16.25V3.90625C14.0625 1.74805 12.3145 0 10.1562 0H3.90625ZM10.9375 26.5625C9.63867 26.5625 8.59375 27.6074 8.59375 28.9062V32.0312C8.59375 33.3301 9.63867 34.375 10.9375 34.375H14.0625C15.3613 34.375 16.4062 33.3301 16.4062 32.0312V28.9062C16.4062 27.6074 15.3613 26.5625 14.0625 26.5625H10.9375ZM10.1562 28.9062C10.1562 28.4766 10.5078 28.125 10.9375 28.125H14.0625C14.4922 28.125 14.8438 28.4766 14.8438 28.9062V32.0312C14.8438 32.4609 14.4922 32.8125 14.0625 32.8125H10.9375C10.5078 32.8125 10.1562 32.4609 10.1562 32.0312V28.9062ZM21.0938 28.9062V32.0312C21.0938 33.3301 22.1387 34.375 23.4375 34.375H26.5625C27.8613 34.375 28.9062 33.3301 28.9062 32.0312V28.9062C28.9062 27.6074 27.8613 26.5625 26.5625 26.5625H23.4375C22.1387 26.5625 21.0938 27.6074 21.0938 28.9062ZM23.4375 28.125H26.5625C26.9922 28.125 27.3438 28.4766 27.3438 28.9062V32.0312C27.3438 32.4609 26.9922 32.8125 26.5625 32.8125H23.4375C23.0078 32.8125 22.6562 32.4609 22.6562 32.0312V28.9062C22.6562 28.4766 23.0078 28.125 23.4375 28.125ZM35.9375 26.5625C34.6387 26.5625 33.5938 27.6074 33.5938 28.9062V32.0312C33.5938 33.3301 34.6387 34.375 35.9375 34.375H39.0625C40.3613 34.375 41.4062 33.3301 41.4062 32.0312V28.9062C41.4062 27.6074 40.3613 26.5625 39.0625 26.5625H35.9375ZM35.1562 28.9062C35.1562 28.4766 35.5078 28.125 35.9375 28.125H39.0625C39.4922 28.125 39.8438 28.4766 39.8438 28.9062V32.0312C39.8438 32.4609 39.4922 32.8125 39.0625 32.8125H35.9375C35.5078 32.8125 35.1562 32.4609 35.1562 32.0312V28.9062Z" fill="black"/>
</svg>
