<svg width="50" height="50" viewBox="0 0 50 50" fill="none" xmlns="http://www.w3.org/2000/svg">
    <g clip-path="url(#clip0_597_2)">
        <path
            d="M17.6563 5.97656C19.0527 3.34961 21.8164 1.5625 25 1.5625C28.1836 1.5625 30.9473 3.34961 32.3438 5.97656C32.5195 6.30859 32.9004 6.46484 33.2617 6.35742C36.1035 5.48828 39.3262 6.17187 41.5723 8.41797C43.8184 10.6641 44.5117 13.8867 43.6328 16.7285C43.5254 17.0898 43.6816 17.4707 44.0137 17.6465C46.6504 19.0527 48.4375 21.8164 48.4375 25C48.4375 28.1836 46.6504 30.9473 44.0234 32.3438C43.6914 32.5195 43.5352 32.9102 43.6426 33.2617C44.5117 36.1035 43.8281 39.3262 41.582 41.5723C39.3359 43.8184 36.1133 44.5117 33.2715 43.6328C32.9102 43.5254 32.5293 43.6816 32.3535 44.0137C30.9473 46.6504 28.1836 48.4375 25 48.4375C21.8164 48.4375 19.0527 46.6504 17.6563 44.0234C17.4805 43.6914 17.0996 43.5352 16.7383 43.6426C13.8965 44.5117 10.6738 43.8281 8.42773 41.582C6.18164 39.3359 5.48828 36.1133 6.36719 33.2715C6.47461 32.9102 6.31836 32.5293 5.98633 32.3535C3.34961 30.9473 1.5625 28.1836 1.5625 25C1.5625 21.8164 3.34961 19.0527 5.97656 17.6563C6.30859 17.4805 6.46484 17.0996 6.35742 16.7383C5.48828 13.8965 6.17187 10.6738 8.41797 8.42773C10.6641 6.18164 13.8867 5.48828 16.7285 6.36719C17.0898 6.47461 17.4707 6.31836 17.6465 5.98633L17.6563 5.97656ZM25 0C21.4453 0 18.3301 1.88477 16.5918 4.70703C13.3691 3.93555 9.83398 4.81445 7.32422 7.32422C4.81445 9.83398 3.93555 13.3691 4.70703 16.5918C1.88477 18.3301 0 21.4453 0 25C0 28.5547 1.88477 31.6699 4.70703 33.4082C3.93555 36.6309 4.81445 40.166 7.32422 42.6758C9.83398 45.1855 13.3691 46.0645 16.5918 45.293C18.3301 48.1152 21.4453 50 25 50C28.5547 50 31.6699 48.1152 33.4082 45.293C36.6309 46.0645 40.166 45.1855 42.6758 42.6758C45.1855 40.166 46.0645 36.6309 45.293 33.4082C48.1152 31.6699 50 28.5547 50 25C50 21.4453 48.1152 18.3301 45.293 16.5918C46.0645 13.3691 45.1855 9.83398 42.6758 7.32422C40.166 4.81445 36.6309 3.93555 33.4082 4.70703C31.6699 1.88477 28.5547 0 25 0ZM34.9316 19.3066C35.2344 19.0039 35.2344 18.5059 34.9316 18.2031C34.6289 17.9004 34.1309 17.9004 33.8281 18.2031L21.875 30.1465L16.1816 24.4531C15.8789 24.1504 15.3809 24.1504 15.0781 24.4531C14.7754 24.7559 14.7754 25.2539 15.0781 25.5566L21.3281 31.8066C21.6309 32.1094 22.1289 32.1094 22.4316 31.8066L34.9316 19.3066Z"
            fill="#4BB543" />
    </g>
    <defs>
        <clipPath id="clip0_597_2">
            <rect width="50" height="50" fill="white" />
        </clipPath>
    </defs>
</svg>