<svg width="40" height="37" viewBox="0 0 40 37" fill="none" xmlns="http://www.w3.org/2000/svg">
<path d="M17.2161 1.93255C18.2238 -0.576859 21.7762 -0.576859 22.7839 1.93255L25.7638 9.35304C26.1929 10.4217 27.1958 11.1503 28.3448 11.2282L36.3229 11.7692C39.0209 11.9521 40.1186 15.3307 38.0434 17.0645L31.907 22.1916C31.0233 22.9299 30.6402 24.1089 30.9211 25.2257L32.872 32.9805C33.5318 35.603 30.6578 37.6911 28.3675 36.2532L21.5951 32.0014C20.6198 31.3891 19.3802 31.3891 18.4049 32.0014L11.6325 36.2532C9.34221 37.6911 6.46824 35.603 7.12798 32.9805L9.07888 25.2257C9.35982 24.1089 8.97674 22.9299 8.09304 22.1916L1.95655 17.0645C-0.118635 15.3307 0.979123 11.9521 3.67711 11.7692L11.6552 11.2282C12.8042 11.1503 13.8071 10.4217 14.2362 9.35304L17.2161 1.93255Z" fill="#FDB812"/>
</svg>
