<svg width="50" height="41" viewBox="0 0 50 41" fill="none" xmlns="http://www.w3.org/2000/svg">
<path d="M0 36.003C4.53425 38.9108 9.931 40.6111 15.722 40.6111C34.7462 40.6111 45.515 24.5441 44.8743 10.1035C46.8704 8.64958 48.62 6.85067 50 4.80532C48.1518 5.61853 46.1804 6.16067 44.1104 6.4071C46.2297 5.15032 47.8561 3.12962 48.62 0.73928C46.6486 1.92213 44.4554 2.75998 42.1143 3.22819C40.2415 1.23213 37.5801 0 34.623 0C27.9941 0 23.1395 6.18531 24.6427 12.5924C16.1163 12.1735 8.57565 8.0828 3.5239 1.87284C0.837851 6.48102 2.11927 12.5185 6.70281 15.5742C5.02711 15.5249 3.44998 15.0567 2.04534 14.2928C1.94677 19.0488 5.34746 23.4845 10.276 24.4702C8.82208 24.8645 7.24495 24.963 5.64317 24.6427C6.94924 28.7087 10.7442 31.6905 15.2292 31.7644C10.9167 35.1405 5.49532 36.6437 0.0492854 36.003H0Z" fill="black"/>
</svg>
